# xmcd CD database file
#
# Track frame offsets:
#	150
#	9718
#	27145
#	40364
#	51757
#	63116
#	86005
#	120990
#	135095
#	161140
#	175379
#	195442
#	228378
#
# Disc length: 3526 seconds
#
# Revision: 0
# Processed by: cddbd v1.5.2PL0 Copyright (c) Steve Scherf et al.
# Submitted via: CDex 1.75
#
DISCID=9d0dc40d
DTITLE=Various Artist - Jazz Loves Bernstein CD2
DYEAR=2018
DGENRE=Jazz
TTITLE0=Ya Got Me - Bobby Scott
TTITLE1=Something's Coming - The Oscar Peterson Trio
TTITLE2=It's Love - Carmen McRae
TTITLE3=Jump - Bill Charlap Trio
TTITLE4=I Can Cook Too - Bobby Scott
TTITLE5=Maria (Live At Tivoli Garden, Copenhagen/1963) - Sarah Vaughan
TTITLE6=Jet Song - The Oscar Peterson Trio
TTITLE7=It Must Be So - Bobby Scott
TTITLE8=Tonight - Manny Albam
TTITLE9=Lonely Town -  Maynard Ferguson
TTITLE10=I Feel Pretty - The Oscar Peterson Trio
TTITLE11=Ohio (From Wonderful Town) - Bill Charlap Trio
TTITLE12=Some Other Time - Mark Whitfield
EXTD=YEAR: 2018
EXTT0=
EXTT1=
EXTT2=
EXTT3=
EXTT4=
EXTT5=
EXTT6=
EXTT7=
EXTT8=
EXTT9=
EXTT10=
EXTT11=
EXTT12=
PLAYORDER=
